<svg width="1566" height="611" viewBox="0 0 1566 611" fill="none" xmlns="http://www.w3.org/2000/svg">
<path d="M347.915 56.1638H363.973L389.971 57.6935L415.969 61.5177L441.967 67.6363L469.494 76.8144L487.846 84.4627L500.08 90.5814L513.079 97.4649L529.137 107.408L542.9 117.351L556.664 128.058L567.369 137.236L574.251 144.12L580.368 149.474L591.838 161.711L601.014 172.419L612.483 187.715L621.659 200.718L631.6 217.544L639.246 231.311L647.657 249.667L656.068 271.082L662.95 292.498L668.303 314.678L672.126 338.388L674.42 359.038L675.185 378.159L673.655 396.515L669.832 412.577L665.244 424.814L657.598 439.346L648.422 452.348L639.246 463.056L627.012 475.293L616.307 483.707L606.366 491.355L591.838 500.533L575.016 509.711L557.429 518.124L536.019 526.537L514.608 533.421L487.846 540.304L465.671 544.893L441.202 548.717L418.263 551.012L389.206 552.542H372.384L341.798 551.012L320.388 548.717L297.448 544.893L268.392 538.01L241.629 529.597L223.277 521.948L208.749 515.065L191.162 505.122L178.163 496.709L176.634 493.649L181.986 491.355L250.04 478.353L270.686 472.999L291.331 466.115L304.33 459.997L314.271 453.113L319.623 447.759L324.211 439.346L324.976 436.287V430.168L321.152 422.52L318.094 420.99L308.918 415.636L292.096 409.518L259.98 401.869L236.276 396.515L219.454 391.926L203.396 385.808L196.515 381.983V380.454L212.572 377.394L226.336 372.805L238.57 365.922L247.746 357.509L251.569 352.92L256.922 342.212L257.687 336.093L256.922 333.034H247.746L233.218 335.329H224.807L220.219 333.034L214.866 327.68L212.572 324.621L213.337 320.797L220.983 309.324L231.688 288.674L236.276 277.201L239.335 262.669V254.256L236.276 246.608L233.982 244.313H227.865L220.219 247.373L209.514 255.021L201.867 261.904L190.397 273.377L183.516 281.79L173.575 294.027L165.164 304.735L155.224 318.502L143.754 335.329L133.813 349.86L123.873 365.157L110.874 385.043L100.934 399.575L90.9932 411.812L83.3467 420.225L75.7002 425.579L70.3477 427.874L59.6426 428.638L53.5254 426.344L48.9375 422.52L43.585 414.107L40.5264 405.693L38.9971 395.751L38.2324 385.808V360.568L40.5264 333.034L44.3496 310.854L49.7021 288.674L55.8193 268.788L64.2305 247.373L72.6416 229.781L82.582 212.19L91.7578 197.658L100.934 184.656L109.345 173.948L118.521 163.241L125.402 155.592L142.989 138.001L151.4 131.118L161.341 122.704L175.104 112.762L188.104 104.348L203.396 95.1704L224.042 84.4627L246.981 75.2847L270.686 67.6363L293.625 62.2825L316.564 58.4583L331.093 56.9287L347.915 56.1638ZM334.151 85.9924L313.506 88.2869L289.802 92.8759L268.392 98.9946L253.099 104.348L230.159 114.291L212.572 123.469L193.456 135.707L178.928 146.414L168.223 155.592L162.105 160.946L154.459 167.83L143.754 178.537L136.872 186.951L129.99 194.599L119.285 209.131L110.874 222.133L101.698 238.195L93.2871 254.256L84.876 274.907L77.9941 296.322L73.4062 314.678L69.583 336.858L68.0537 351.39L66.5244 380.454L64.2305 385.808L58.8779 391.926L52.7607 395.751L53.5254 398.81L54.29 399.575H60.4072L66.5244 394.986L71.1123 389.632L78.7588 378.924L90.9932 361.333L106.286 338.388L116.227 323.091L129.99 302.441L139.166 289.438L146.048 280.26L156.753 266.493L165.929 255.786L184.28 237.43L196.515 228.252L208.749 221.368L219.454 217.544L227.865 216.014H240.1L250.805 218.309L257.687 221.368L258.451 222.898L250.805 225.192L237.806 228.252L238.57 230.546L244.688 232.076H256.157L266.098 230.546H270.686L279.097 239.724L283.685 246.608L284.449 248.902L280.626 249.667L266.862 253.491L249.275 256.551V258.08L256.157 260.375L262.274 261.14H279.097L288.272 259.61H292.096L297.448 267.258L298.978 270.318L294.39 271.847L283.685 275.671L269.156 278.731L259.216 280.26V281.79L265.333 284.085L268.392 284.849H290.566L301.271 282.555L304.33 281.025L307.389 281.79L312.741 290.203L318.858 298.616L314.271 299.381L303.565 303.205L281.391 307.794L280.626 309.324L290.566 311.619H314.271L322.682 309.324L325.74 308.559L331.857 315.443L336.445 322.326L333.387 323.856L326.505 328.445L318.094 332.269L305.859 336.093L296.684 338.388V340.682L298.213 341.447H318.094L328.799 339.918L339.504 336.093L343.327 333.034L347.15 333.799L352.503 340.682L357.855 346.801V349.096L347.15 355.214L337.21 359.038L319.623 363.627V365.157L324.976 366.687H337.21L350.974 365.157L360.914 362.098L367.031 358.274L370.09 359.803L380.03 369.746L376.207 373.57L363.973 379.689L354.032 383.513L339.504 387.337L338.739 388.867L344.092 390.397H357.091L370.09 388.867L382.324 385.043L390.735 379.689L400.676 388.867L404.499 391.926L405.264 394.221L399.911 398.81L387.677 404.929L373.913 409.518L363.208 412.577L364.737 414.107L369.325 414.871H384.618L395.323 413.342L406.793 409.518L414.439 404.929L415.969 403.399L419.792 404.164L427.438 410.282L431.262 414.107L427.438 418.696L415.204 427.874L402.205 435.522L400.676 438.581L407.558 437.816L428.203 430.933L437.379 425.579L441.202 421.755L445.79 422.52L456.495 429.403L459.554 431.698H461.083L457.26 436.287L447.319 443.935L430.497 453.878L429.732 455.408H435.85L451.143 450.819L460.318 446.994L468.729 441.641L471.788 438.581L476.376 440.111L488.61 446.23L484.022 451.583L482.493 454.643L479.435 456.172L471.788 462.291L458.024 469.939L454.966 472.999H461.083L478.67 467.645L490.904 461.526L497.786 456.172L500.845 453.113V451.583L513.844 456.172L519.961 457.702L516.138 462.291L506.197 469.939L490.904 479.118V480.647L498.551 479.882L516.902 473.764L526.843 468.41L535.254 461.526L549.782 463.821H562.017L560.487 466.88L539.842 477.588L527.607 483.707L506.197 492.12L484.787 499.003L451.143 507.416L420.557 513.535L383.089 518.889L337.975 523.478L312.741 525.008V525.772L320.388 526.537H379.266L420.557 524.243L451.907 521.183L477.905 517.359L504.668 512.005L527.607 505.887L552.841 497.474L571.957 489.06L584.956 482.177L597.955 473.764L607.896 466.115L619.365 455.408L625.482 448.524L632.364 438.581L638.481 426.344L643.834 410.282L645.363 394.986V358.274L643.069 334.564L640.011 316.208L635.423 297.087L629.306 277.201L620.895 256.551L610.189 235.135L600.249 218.309L591.838 206.071L581.133 192.304L572.722 182.362L563.546 172.419L555.135 164.006L549.018 158.652L541.371 151.768L529.137 142.59L513.844 131.882L494.728 120.41L476.376 111.232L451.143 101.289L431.262 95.1704L412.146 90.5814L393.794 87.522L376.207 85.9924H334.151Z" fill="#F5F5F5"/>
<path d="M350.209 113.526H361.679L386.147 115.056L409.087 118.115L426.674 121.94L449.613 128.823L469.494 136.471L488.61 145.649L503.903 154.063L516.138 162.476L527.607 170.889L539.842 180.832L549.782 190.01L563.546 203.777L570.428 212.19L578.839 222.898L588.779 236.665L594.132 246.608L601.778 260.375L609.425 277.966L617.836 303.205L622.424 323.091L624.718 336.858L626.247 357.509V378.159L625.482 389.632L623.188 394.986L617.836 401.104L610.954 407.223L600.249 413.342L591.838 417.166L579.604 420.225L567.369 421.755H549.018L528.372 418.695L509.256 413.342L490.14 406.458L471.788 398.045L452.672 388.102L438.144 378.924L425.909 370.511L411.381 359.803L398.382 349.096L387.677 339.917L377.736 330.739L353.268 306.265L347.915 300.146L339.504 290.968L332.622 282.555L322.682 270.318L311.977 255.786L302.036 242.019L283.685 214.485L277.567 206.836L270.686 199.953L263.039 194.599L253.863 190.01L245.452 187.715L240.1 186.951H230.159L217.925 190.01L208.749 193.834L198.044 199.953L187.339 208.366L176.634 217.544L172.811 222.133H171.281L169.752 225.192L163.635 231.311L156.753 239.724L146.812 251.961L129.99 274.907L121.579 287.144L107.051 308.559L97.875 322.326L91.7578 330.739L89.4639 333.034L90.2285 326.915L95.5811 303.97L103.228 281.025L110.109 264.964L118.521 248.137L128.461 232.076L136.872 220.603L145.283 209.896L153.694 200.718L162.87 190.775L172.811 181.597L183.516 172.419L194.221 164.77L207.984 155.592L220.983 147.944L235.512 140.296L255.393 131.882L280.626 123.469L299.742 118.88L319.623 115.821L334.151 114.291L350.209 113.526Z" fill="#D9D9D9"/>
<path d="M1322.84 203.012H1396.25L1392.42 222.133L1375.6 307.03L1370.25 329.975L1364.13 349.861L1358.02 363.628L1353.43 372.041L1347.31 379.689L1338.13 388.867L1327.43 394.986L1317.49 398.045L1312.14 398.81H1289.96L1274.67 396.515L1270.08 394.986L1271.61 391.926L1282.32 380.454L1289.96 372.806L1292.26 369.746L1296.84 370.511L1304.49 375.1L1313.67 378.159L1320.55 377.395L1322.84 375.1L1325.9 362.863L1332.78 330.74L1336.61 316.208L1330.49 321.562L1322.84 327.68L1312.14 333.034L1300.67 336.093H1287.67L1277.73 333.034L1270.08 328.445L1264.73 323.091L1262.43 320.032L1259.38 321.562L1247.14 329.975L1238.73 333.799L1228.79 336.093H1216.56L1209.67 333.799L1202.03 326.915L1198.2 319.267L1196.67 312.384L1192.85 315.443L1187.5 321.562L1177.56 329.21L1169.91 333.034L1157.68 336.093H1143.15L1132.44 332.269L1124.8 326.151L1119.45 319.267L1115.62 310.089L1114.09 302.441V286.379L1117.92 265.729L1123.27 249.667L1130.92 235.135L1138.56 225.192L1146.21 217.544L1156.91 210.661L1166.09 206.836L1178.32 204.542L1250.96 203.777L1250.2 212.19L1240.26 260.375L1231.85 299.381L1230.32 306.265V316.973L1234.14 320.797L1241.02 320.032L1250.96 314.678L1257.08 309.324L1255.55 298.617V290.203L1257.85 274.142L1261.67 258.08L1267.79 242.784L1275.43 230.546L1283.84 221.368L1292.26 213.72L1304.49 206.836L1312.14 204.542L1322.84 203.012ZM1334.31 213.72L1327.43 216.779L1321.31 221.368L1313.67 229.781L1306.02 242.784L1301.43 253.491L1297.61 264.964L1295.31 275.672L1294.55 281.79V301.676L1296.08 308.559L1299.9 314.678L1303.73 317.737L1305.25 318.502H1311.37L1319.02 314.678L1327.43 307.795L1334.31 300.911L1340.43 293.263L1343.49 281.79L1354.19 229.017L1353.43 223.663L1348.08 217.544L1341.96 213.72H1334.31ZM1192.09 216.014L1184.44 218.309L1176.79 224.428L1169.91 232.841L1163.03 244.313L1157.68 256.551L1153.85 271.083L1151.56 286.379V300.911L1153.85 310.089L1156.91 315.443L1161.5 318.502L1168.38 319.267L1176.79 314.678L1184.44 307.795L1194.38 297.852L1197.44 293.263L1200.5 279.496L1210.44 229.781L1208.91 225.192L1205.09 220.603L1198.97 216.779L1192.09 216.014Z" fill="#D9D9D9"/>
<path d="M1095.74 138.766H1118.68L1103.39 214.485L1085.8 304.735L1081.21 326.915L1079.68 333.034L1086.57 334.564L1107.98 339.153L1124.8 344.507L1146.97 352.155L1165.32 359.803L1177.56 365.922L1194.38 375.1V377.395L1182.15 383.513L1153.85 397.28L1150.03 399.575L1146.97 398.81L1143.15 394.986L1133.21 385.808L1120.21 375.865L1105.68 366.687L1091.92 359.039L1075.1 351.39L1061.33 346.801L1050.63 344.507L1040.69 343.742L1039.92 341.447L1052.92 277.966L1072.04 181.597L1075.86 164.77V162.476L1059.04 164.77L1042.98 168.595L1033.8 172.419L1027.69 177.008L1024.63 181.597L1022.33 190.775V199.188L1024.63 210.661L1028.45 219.839L1029.98 222.898L1029.22 225.957L1016.98 232.076L996.337 242.019H993.278L992.514 232.076V212.19L994.808 196.894L998.631 185.421L1003.98 175.478L1009.34 168.595L1013.16 164.006L1023.1 156.357L1036.1 149.474L1047.57 145.65L1061.33 142.59L1084.27 139.531L1095.74 138.766Z" fill="#D9D9D9"/>
<path d="M801.352 138.766H880.875L878.581 146.414L873.993 160.946L873.229 161.711H818.174L816.645 171.654L809.763 206.836L808.233 212.955H847.23L840.349 235.135L839.584 235.9H803.646L800.587 253.491L791.411 298.617L788.353 311.619H846.466L843.407 323.856L840.349 333.799L839.584 334.564H747.826V329.21L752.414 308.559L766.178 240.489L779.177 176.243L782.235 160.946L759.296 164.77L748.591 167.83L740.944 171.654L735.592 176.243L732.533 181.597L731.004 188.48V196.894L733.298 209.131L738.65 220.603L732.533 224.428L706.535 236.665L702.712 235.9L701.947 222.898V209.131L705.006 190.775L709.594 179.302L714.946 170.889L721.828 162.476L731.004 155.592L743.238 149.474L753.943 145.65L769.236 141.825L786.059 139.531L801.352 138.766Z" fill="#D9D9D9"/>
<path d="M1462.01 203.012H1479.59L1489.54 206.072L1497.95 211.425L1504.06 217.544L1509.42 226.722L1512.47 238.959V245.843L1527.77 239.724L1539.24 233.606L1543.06 234.37V238.959L1537.71 245.078L1530.83 251.197L1519.36 258.845L1512.47 262.669H1510.95L1510.18 272.612L1506.36 284.85L1501 297.087L1494.12 307.795L1485.71 317.737L1478.07 323.856L1469.65 329.21L1460.48 333.034L1448.24 336.093H1432.95L1423.78 333.799L1414.6 329.21L1406.95 323.091L1401.6 316.973L1395.48 305.5L1393.19 296.322L1392.42 284.085L1393.95 271.083L1397.78 258.08L1404.66 243.548L1411.54 233.606L1418.42 225.957L1424.54 219.839L1435.25 212.19L1448.24 206.072L1462.01 203.012ZM1454.36 219.074L1447.48 223.663L1441.36 232.076L1436.01 244.313L1431.42 260.375L1429.13 274.907V292.498L1432.19 304.735L1436.01 311.619L1441.36 316.973L1448.24 319.267L1455.13 317.737L1461.24 313.913L1467.36 307.03L1473.48 294.792L1477.3 282.555L1480.36 268.788L1476.54 266.494L1465.83 262.669L1455.89 256.551L1456.66 252.726L1464.3 242.784L1468.12 238.195L1471.18 239.724L1476.54 243.548H1478.83L1478.07 238.195L1472.71 227.487L1466.6 221.368L1462.01 219.074H1454.36Z" fill="#D9D9D9"/>
<path d="M893.874 151.768H929.048L928.283 158.652L916.813 214.485L902.285 284.085L896.933 312.383L897.697 318.502L900.756 320.797H906.108L915.284 316.208L922.931 309.324L928.283 303.97L932.871 296.322L935.165 291.733L939.753 290.203H945.87L945.105 294.792L937.459 307.794L929.048 317.737L920.637 325.386L912.226 330.739L903.05 334.564L896.168 336.093H883.934L877.052 333.034L870.935 327.68L866.347 320.032L864.817 314.678L864.053 304.735L865.582 290.203L880.875 212.955L886.992 183.126L893.109 152.533L893.874 151.768Z" fill="#D9D9D9"/>
<path d="M1461.24 427.109L1466.6 427.873L1469.65 430.933L1475.01 443.17L1477.3 446.23L1478.07 427.873L1484.18 427.109L1485.71 428.638L1484.95 466.88H1480.36L1477.3 463.821L1471.95 452.348L1469.65 447.759L1468.12 446.994V466.115L1463.54 467.645L1461.24 466.115L1460.48 459.997V439.346L1461.24 427.109Z" fill="#F5F5F5"/>
<path d="M1197.44 427.109H1202.03L1205.09 430.933L1213.5 446.994L1214.26 427.873L1215.03 427.109H1221.14L1221.91 429.403L1221.14 466.88L1217.32 467.645L1213.5 463.821L1205.09 446.994L1204.32 466.115L1203.56 466.88H1197.44L1196.67 429.403L1197.44 427.109Z" fill="#F5F5F5"/>
<path d="M1380.19 421.755H1389.37L1390.9 422.52L1394.72 440.876L1399.31 463.056V466.88H1392.42L1390.9 462.291L1390.13 459.232L1388.6 458.467H1380.96L1378.66 466.115L1377.9 466.88H1371.78L1372.54 458.467L1377.13 434.757L1380.19 421.755ZM1384.78 435.522L1383.25 439.346L1381.72 450.819L1388.6 451.583L1389.37 449.289L1387.07 437.816L1384.78 435.522Z" fill="#F5F5F5"/>
<path d="M1036.1 427.874H1055.98L1057.51 430.933L1058.27 436.287L1057.51 450.819L1055.98 456.937L1058.27 464.586V466.115L1056.74 466.88H1051.39L1049.1 459.997L1048.33 454.643H1043.75L1042.98 456.172V466.115L1042.22 466.88H1036.86L1035.33 461.526V430.168L1036.1 427.874ZM1042.98 434.757L1042.22 436.287V443.17L1043.75 447.759H1049.86L1050.63 446.994L1051.39 436.287L1050.63 434.757H1042.98Z" fill="#F5F5F5"/>
<path d="M1404.66 427.109L1424.54 427.873L1426.83 431.698V448.524L1426.07 452.348V466.88L1423.78 467.645L1419.95 466.115L1416.89 455.408H1413.07L1412.31 466.88L1408.48 467.645L1405.42 466.115L1404.66 460.761V427.109ZM1413.83 433.992L1412.31 434.757L1411.54 437.816V443.935L1413.07 447.759H1419.19L1420.72 443.17L1419.95 435.522L1417.66 433.992H1413.83Z" fill="#F5F5F5"/>
<path d="M924.46 427.109L942.812 427.873L945.105 429.403L945.87 431.698V448.524L945.105 452.348V460.761L945.87 466.88L945.105 467.645H940.518L938.224 466.115L936.694 456.937L935.93 455.408L930.577 454.643V466.88L926.754 467.645L923.695 466.115V433.227L924.46 427.109ZM931.342 433.992L930.577 435.522V445.465L932.106 447.759H938.224L938.988 446.23V435.522L937.459 433.992H931.342Z" fill="#F5F5F5"/>
<path d="M1322.08 426.344H1324.37L1323.61 430.933L1317.49 441.641L1315.96 446.23L1324.37 462.291L1325.14 466.88L1319.78 467.645L1315.96 463.821L1311.37 454.643L1309.08 453.113L1308.31 466.115L1307.55 466.88H1301.43L1300.67 465.351L1299.9 456.937V427.874L1300.67 427.109H1307.55L1308.31 427.874L1307.55 440.111L1310.61 438.581L1316.72 428.638L1322.08 426.344Z" fill="#F5F5F5"/>
<path d="M1136.27 427.109H1145.44L1150.8 429.403L1151.56 440.111L1149.27 440.876L1144.68 439.346L1142.38 435.522V433.992L1137.8 434.757L1137.03 435.522V440.111L1143.15 443.17L1150.8 446.23L1151.56 446.994V461.526L1149.27 465.35L1145.44 466.88H1132.44L1129.39 462.291L1128.62 455.408L1130.15 453.113L1133.97 453.878L1137.03 456.937L1137.8 458.467L1143.91 459.232L1143.15 451.583L1135.5 449.289L1129.39 446.994L1128.62 446.23V436.287L1130.15 429.403L1132.44 427.873L1136.27 427.109Z" fill="#F5F5F5"/>
<path d="M1172.97 427.874H1189.03L1190.56 428.638L1191.32 432.463V460.761L1189.03 465.35L1185.97 466.88H1174.5L1170.68 464.586L1169.15 462.291L1168.38 458.467V434.757L1169.15 429.403L1172.97 427.874ZM1178.32 433.992L1176.03 435.522V456.937L1177.56 459.997H1182.91L1184.44 457.702V435.522L1182.91 433.992H1178.32Z" fill="#F5F5F5"/>
<path d="M955.811 427.874H970.339L972.633 428.638L974.162 433.992V459.997L971.868 465.35L968.045 466.88H956.575L954.281 466.115L951.987 462.291L951.223 457.702V443.935L951.987 430.933L953.517 428.638L955.811 427.874ZM959.634 433.992L958.869 435.522V457.702L960.398 459.997H964.986L967.28 456.937V435.522L965.751 433.992H959.634Z" fill="#F5F5F5"/>
<path d="M1329.72 427.109H1345.02L1352.66 427.873V433.992L1351.9 434.757L1337.37 435.522V443.17H1344.25L1349.6 444.7V449.289L1348.08 450.819H1337.37V456.937L1338.13 458.467L1351.9 459.232L1352.66 460.761V466.115L1351.9 466.88H1330.49L1329.72 466.115L1328.96 457.702V436.287L1329.72 427.109Z" fill="#F5F5F5"/>
<path d="M1008.57 427.109H1029.98V434.757H1016.22L1015.45 443.17H1025.39L1027.69 443.935V450.054L1026.16 450.819H1015.45V458.467H1029.98L1030.75 459.997V466.115L1029.98 466.88H1008.57L1007.81 466.115V427.873L1008.57 427.109Z" fill="#F5F5F5"/>
<path d="M1433.72 427.109H1451.3L1455.13 427.873V434.757L1451.3 435.522L1440.6 434.757L1441.36 443.17H1449.77L1452.83 444.7V450.054L1451.3 450.819H1440.6L1441.36 458.467H1454.36L1455.89 459.997V466.115L1455.13 466.88H1433.72L1432.95 465.35V428.638L1433.72 427.109Z" fill="#F5F5F5"/>
<path d="M1278.49 426.344L1285.37 427.109L1287.67 429.403L1296.08 466.115L1295.31 466.88H1289.2L1286.14 459.997L1284.61 459.232H1277.73L1273.9 466.88L1269.32 467.645L1267.79 466.88L1269.32 457.702L1273.14 440.111L1276.96 427.874L1278.49 426.344ZM1280.79 440.111L1278.49 448.524V452.348L1284.61 453.113V446.23L1282.32 440.111H1280.79Z" fill="#F5F5F5"/>
<path d="M1111.03 427.109H1124.03L1125.56 427.873L1124.8 433.992L1124.03 434.757L1111.03 435.522L1110.27 443.17H1121.74L1122.5 448.524L1120.21 450.819H1110.27V458.467H1124.03L1124.8 459.232L1125.56 466.115L1124.8 466.88H1103.39L1102.62 466.115V427.873L1111.03 427.109Z" fill="#F5F5F5"/>
<path d="M1499.48 427.109H1505.59L1508.65 430.168L1513.24 448.524L1516.3 463.821V466.88L1511.71 467.645L1509.42 465.35L1507.89 459.997L1504.83 459.232H1498.71L1494.89 466.88L1490.3 467.645L1489.54 466.88L1490.3 458.467L1493.36 443.17L1497.18 429.403L1499.48 427.109ZM1501.77 440.111L1499.48 448.524V452.348L1500.24 453.113H1504.83L1506.36 451.583L1505.59 444.7L1503.3 440.876L1501.77 440.111Z" fill="#F5F5F5"/>
<path d="M980.279 427.874H1000.16L1001.69 429.403V451.583L999.396 453.878L994.808 454.643H987.161V466.115L986.396 466.88H980.279V427.874ZM987.926 433.992L987.161 434.757V446.994L987.926 447.759H992.514L994.808 446.23V434.757L994.043 433.992H987.926Z" fill="#F5F5F5"/>
<path d="M1240.26 421.755H1248.67V459.232L1261.67 458.467L1263.2 459.232V465.35L1262.43 466.88H1241.02L1240.26 459.997V421.755Z" fill="#F5F5F5"/>
<path d="M1522.42 427.109H1528.53L1529.3 427.873V459.232H1540.77L1542.3 461.526L1541.53 466.115L1538.47 466.88H1522.42L1521.65 465.35L1520.89 457.702V428.638L1522.42 427.109Z" fill="#F5F5F5"/>
<path d="M1067.45 427.109H1081.21L1085.8 427.873V433.992L1078.15 434.757L1077.39 466.88H1070.51L1069.74 465.35V434.757L1062.1 433.992V429.403L1062.86 427.873L1067.45 427.109Z" fill="#F5F5F5"/>
<path d="M1089.62 427.109H1096.51V466.88H1089.62L1088.86 465.35V447.759L1089.62 427.109Z" fill="#F5F5F5"/>
</svg>
