<svg width="637" height="497" viewBox="0 0 637 497" fill="none" xmlns="http://www.w3.org/2000/svg">
<path d="M309.683 0H325.74L351.738 1.52967L377.736 5.35384L403.734 11.4725L431.262 20.6505L449.613 28.2989L461.848 34.4176L474.847 41.3011L490.904 51.2439L504.668 61.1868L518.432 71.8945L529.137 81.0725L536.019 87.956L542.136 93.3099L553.605 105.547L562.781 116.255L574.251 131.552L583.427 144.554L593.367 161.38L601.014 175.147L609.425 193.503L617.836 214.919L624.718 236.334L630.07 258.514L633.894 282.224L636.188 302.875L636.952 321.995L635.423 340.352L631.6 356.413L627.012 368.65L619.365 383.182L610.189 396.184L601.014 406.892L588.779 419.13L578.074 427.543L568.134 435.191L553.605 444.369L536.783 453.547L519.196 461.96L497.786 470.373L476.376 477.257L449.613 484.14L427.438 488.729L402.97 492.554L380.03 494.848L350.974 496.378H334.151L303.565 494.848L282.155 492.554L259.216 488.729L230.159 481.846L203.396 473.433L185.045 465.784L170.517 458.901L152.93 448.958L139.931 440.545L138.401 437.486L143.754 435.191L211.808 422.189L232.453 416.835L253.099 409.951L266.098 403.833L276.038 396.949L281.391 391.595L285.979 383.182L286.743 380.123V374.004L282.92 366.356L279.861 364.826L270.686 359.472L253.863 353.354L221.748 345.705L198.044 340.352L181.222 335.763L165.164 329.644L158.282 325.82V324.29L174.34 321.231L188.104 316.642L200.338 309.758L209.514 301.345L213.337 296.756L218.689 286.048L219.454 279.93L218.689 276.87H209.514L194.985 279.165H186.574L181.986 276.87L176.634 271.516L174.34 268.457L175.104 264.633L182.751 253.16L193.456 232.51L198.044 221.037L201.103 206.505V198.092L198.044 190.444L195.75 188.149H189.633L181.986 191.209L171.281 198.857L163.635 205.741L152.165 217.213L145.283 225.626L135.343 237.864L126.932 248.571L116.991 262.338L105.521 279.165L95.5811 293.697L85.6406 308.993L72.6416 328.879L62.7012 343.411L52.7607 355.648L45.1143 364.061L37.4678 369.415L32.1152 371.71L21.4102 372.475L15.293 370.18L10.7051 366.356L5.35254 357.943L2.29395 349.53L0.764648 339.587L0 329.644V304.404L2.29395 276.87L6.11719 254.69L11.4697 232.51L17.5869 212.624L25.998 191.209L34.4092 173.618L44.3496 156.026L53.5254 141.494L62.7012 128.492L71.1123 117.785L80.2881 107.077L87.1699 99.4285L104.757 81.8373L113.168 74.9538L123.108 66.5406L136.872 56.5978L149.871 48.1846L165.164 39.0066L185.81 28.2989L208.749 19.1209L232.453 11.4725L255.393 6.11868L278.332 2.2945L292.86 0.764835L309.683 0ZM295.919 29.8286L275.273 32.1231L251.569 36.7121L230.159 42.8308L214.866 48.1846L191.927 58.1275L174.34 67.3055L155.224 79.5428L140.695 90.2505L129.99 99.4285L123.873 104.782L116.227 111.666L105.521 122.374L98.6396 130.787L91.7578 138.435L81.0527 152.967L72.6416 165.969L63.4658 182.031L55.0547 198.092L46.6436 218.743L39.7617 240.158L35.1738 258.514L31.3506 280.694L29.8213 295.226L28.292 324.29L25.998 329.644L20.6455 335.763L14.5283 339.587L15.293 342.646L16.0576 343.411H22.1748L28.292 338.822L32.8799 333.468L40.5264 322.76L52.7607 305.169L68.0537 282.224L77.9941 266.927L91.7578 246.277L100.934 233.275L107.815 224.097L118.521 210.33L127.696 199.622L146.048 181.266L158.282 172.088L170.517 165.204L181.222 161.38L189.633 159.85H201.867L212.572 162.145L219.454 165.204L220.219 166.734L212.572 169.029L199.573 172.088L200.338 174.382L206.455 175.912H217.925L227.865 174.382H232.453L240.864 183.56L245.452 190.444L246.217 192.738L242.394 193.503L228.63 197.327L211.043 200.387V201.916L217.925 204.211L224.042 204.976H240.864L250.04 203.446H253.863L259.216 211.094L260.745 214.154L256.157 215.683L245.452 219.508L230.924 222.567L220.983 224.097V225.626L227.101 227.921L230.159 228.686H252.334L263.039 226.391L266.098 224.861L269.156 225.626L274.509 234.039L280.626 242.453L276.038 243.217L265.333 247.042L243.158 251.631L242.394 253.16L252.334 255.455H276.038L284.449 253.16L287.508 252.396L293.625 259.279L298.213 266.163L295.154 267.692L288.272 272.281L279.861 276.105L267.627 279.93L258.451 282.224V284.519L259.98 285.283H279.861L290.566 283.754L301.271 279.93L305.095 276.87L308.918 277.635L314.271 284.519L319.623 290.637V292.932L308.918 299.05L298.978 302.875L281.391 307.464V308.993L286.743 310.523H298.978L312.741 308.993L322.682 305.934L328.799 302.11L331.857 303.639L341.798 313.582L337.975 317.406L325.74 323.525L315.8 327.349L301.271 331.174L300.507 332.703L305.859 334.233H318.858L331.857 332.703L344.092 328.879L352.503 323.525L362.443 332.703L366.267 335.763L367.031 338.057L361.679 342.646L349.444 348.765L335.681 353.354L324.976 356.413L326.505 357.943L331.093 358.708H346.386L357.091 357.178L368.561 353.354L376.207 348.765L377.736 347.235L381.56 348L389.206 354.119L393.029 357.943L389.206 362.532L376.972 371.71L363.973 379.358L362.443 382.417L369.325 381.653L389.971 374.769L399.146 369.415L402.97 365.591L407.558 366.356L418.263 373.239L421.321 375.534H422.851L419.027 380.123L409.087 387.771L392.265 397.714L391.5 399.244H397.617L412.91 394.655L422.086 390.831L430.497 385.477L433.556 382.417L438.144 383.947L450.378 390.066L445.79 395.42L444.261 398.479L441.202 400.009L433.556 406.127L419.792 413.776L416.733 416.835H422.851L440.438 411.481L452.672 405.362L459.554 400.009L462.612 396.949V395.42L475.611 400.009L481.729 401.538L477.905 406.127L467.965 413.776L452.672 422.954V424.483L460.318 423.719L478.67 417.6L488.61 412.246L497.021 405.362L511.55 407.657H523.784L522.255 410.716L501.609 421.424L489.375 427.543L467.965 435.956L446.555 442.839L412.91 451.253L382.324 457.371L344.856 462.725L299.742 467.314L274.509 468.844V469.609L282.155 470.373H341.033L382.324 468.079L413.675 465.02L439.673 461.195L466.436 455.842L489.375 449.723L514.608 441.31L533.725 432.897L546.724 426.013L559.723 417.6L569.663 409.951L581.133 399.244L587.25 392.36L594.132 382.417L600.249 370.18L605.602 354.119L607.131 338.822V302.11L604.837 278.4L601.778 260.044L597.19 240.923L591.073 221.037L582.662 200.387L571.957 178.971L562.017 162.145L553.605 149.908L542.9 136.141L534.489 126.198L525.313 116.255L516.902 107.842L510.785 102.488L503.139 95.6044L490.904 86.4263L475.611 75.7187L456.495 64.2461L438.144 55.0681L412.91 45.1253L393.029 39.0066L373.913 34.4176L355.562 31.3582L337.975 29.8286H295.919Z" fill="#538C2D"/>
<path d="M311.977 57.3625H323.446L347.915 58.8922L370.854 61.9516L388.441 65.7757L411.381 72.6592L431.262 80.3076L450.378 89.4856L465.671 97.8988L477.905 106.312L489.375 114.725L501.609 124.668L511.55 133.846L525.313 147.613L532.195 156.026L540.606 166.734L550.547 180.501L555.899 190.444L563.546 204.211L571.192 221.802L579.604 247.042L584.191 266.927L586.485 280.694L588.015 301.345V321.995L587.25 333.468L584.956 338.822L579.604 344.94L572.722 351.059L562.017 357.178L553.605 361.002L541.371 364.061L529.137 365.591H510.785L490.14 362.532L471.023 357.178L451.907 350.294L433.556 341.881L414.439 331.938L399.911 322.76L387.677 314.347L373.148 303.639L360.149 292.932L349.444 283.754L339.504 274.576L315.035 250.101L309.683 243.982L301.271 234.804L294.39 226.391L284.449 214.154L273.744 199.622L263.804 185.855L245.452 158.321L239.335 150.672L232.453 143.789L224.807 138.435L215.631 133.846L207.22 131.552L201.867 130.787H191.927L179.692 133.846L170.517 137.67L159.812 143.789L149.106 152.202L138.401 161.38L134.578 165.969H133.049L131.52 169.028L125.402 175.147L118.521 183.56L108.58 195.798L91.7578 218.743L83.3467 230.98L68.8184 252.395L59.6426 266.162L53.5254 274.576L51.2314 276.87L51.9961 270.751L57.3486 247.806L64.9951 224.861L71.877 208.8L80.2881 191.973L90.2285 175.912L98.6396 164.439L107.051 153.732L115.462 144.554L124.638 134.611L134.578 125.433L145.283 116.255L155.988 108.606L169.752 99.4285L182.751 91.7801L197.279 84.1318L217.16 75.7186L242.394 67.3054L261.51 62.7164L281.391 59.6571L295.919 58.1274L311.977 57.3625Z" fill="#010C72"/>
</svg>
