<svg width="706" height="628" viewBox="0 0 706 628" fill="none" xmlns="http://www.w3.org/2000/svg">
<path d="M120.591 577.475V530.93H138.045C141.621 530.93 144.621 531.551 147.045 532.794C149.485 534.036 151.326 535.778 152.568 538.021C153.826 540.248 154.455 542.847 154.455 545.816C154.455 548.801 153.818 551.392 152.545 553.589C151.288 555.771 149.432 557.46 146.977 558.657C144.523 559.839 141.508 560.43 137.932 560.43H125.5V553.43H136.795C138.886 553.43 140.598 553.142 141.932 552.566C143.265 551.975 144.25 551.119 144.886 549.998C145.538 548.862 145.864 547.468 145.864 545.816C145.864 544.165 145.538 542.756 144.886 541.589C144.235 540.407 143.242 539.513 141.909 538.907C140.576 538.286 138.856 537.975 136.75 537.975H129.023V577.475H120.591ZM144.636 556.384L156.159 577.475H146.75L135.432 556.384H144.636ZM167.336 577.475V530.93H197.609V537.998H175.768V550.634H196.04V557.703H175.768V570.407H197.79V577.475H167.336ZM217.308 577.475H208.308L224.695 530.93H235.104L251.513 577.475H242.513L230.081 540.475H229.717L217.308 577.475ZM217.604 559.225H242.149V565.998H217.604V559.225ZM262.763 577.475V530.93H271.195V570.407H291.695V577.475H262.763ZM325.128 577.475V530.93H355.401V537.998H333.56V550.634H353.833V557.703H333.56V570.407H355.583V577.475H325.128ZM394.419 543.725C394.207 541.74 393.313 540.195 391.737 539.089C390.176 537.983 388.146 537.43 385.646 537.43C383.889 537.43 382.381 537.695 381.123 538.225C379.866 538.756 378.904 539.475 378.237 540.384C377.57 541.294 377.229 542.331 377.214 543.498C377.214 544.468 377.434 545.309 377.873 546.021C378.328 546.733 378.942 547.339 379.714 547.839C380.487 548.324 381.343 548.733 382.283 549.066C383.222 549.4 384.169 549.68 385.123 549.907L389.487 550.998C391.245 551.407 392.934 551.96 394.555 552.657C396.192 553.354 397.654 554.233 398.942 555.294C400.245 556.354 401.275 557.634 402.033 559.134C402.79 560.634 403.169 562.392 403.169 564.407C403.169 567.134 402.472 569.536 401.078 571.612C399.684 573.672 397.669 575.286 395.033 576.453C392.411 577.604 389.237 578.18 385.51 578.18C381.889 578.18 378.745 577.619 376.078 576.498C373.426 575.377 371.351 573.74 369.851 571.589C368.366 569.437 367.563 566.816 367.442 563.725H375.737C375.858 565.347 376.358 566.695 377.237 567.771C378.116 568.847 379.26 569.65 380.669 570.18C382.093 570.71 383.684 570.975 385.442 570.975C387.275 570.975 388.881 570.703 390.26 570.157C391.654 569.597 392.745 568.824 393.533 567.839C394.32 566.839 394.722 565.672 394.737 564.339C394.722 563.127 394.366 562.127 393.669 561.339C392.972 560.536 391.995 559.869 390.737 559.339C389.495 558.794 388.04 558.309 386.373 557.884L381.078 556.521C377.245 555.536 374.214 554.044 371.987 552.044C369.775 550.028 368.669 547.354 368.669 544.021C368.669 541.278 369.411 538.877 370.896 536.816C372.396 534.756 374.434 533.157 377.01 532.021C379.586 530.869 382.502 530.294 385.76 530.294C389.063 530.294 391.957 530.869 394.442 532.021C396.942 533.157 398.904 534.74 400.328 536.771C401.752 538.786 402.487 541.104 402.533 543.725H394.419ZM413.76 537.998V530.93H450.897V537.998H436.51V577.475H428.147V537.998H413.76ZM463.528 577.475H454.528L470.915 530.93H481.324L497.733 577.475H488.733L476.301 540.475H475.937L463.528 577.475ZM463.824 559.225H488.369V565.998H463.824V559.225ZM501.313 537.998V530.93H538.449V537.998H524.063V577.475H515.699V537.998H501.313ZM550.728 577.475V530.93H581.001V537.998H559.16V550.634H579.433V557.703H559.16V570.407H581.183V577.475H550.728Z" fill="#853943"/>
<path d="M28.6818 457.884C28.5303 456.218 27.8561 454.922 26.6591 453.998C25.4773 453.059 23.7879 452.589 21.5909 452.589C20.1364 452.589 18.9242 452.778 17.9545 453.157C16.9848 453.536 16.2576 454.059 15.7727 454.725C15.2879 455.377 15.0379 456.127 15.0227 456.975C14.9924 457.672 15.1288 458.286 15.4318 458.816C15.75 459.347 16.2045 459.816 16.7955 460.225C17.4015 460.619 18.1288 460.968 18.9773 461.271C19.8258 461.574 20.7803 461.839 21.8409 462.066L25.8409 462.975C28.1439 463.475 30.1742 464.142 31.9318 464.975C33.7045 465.809 35.1894 466.801 36.3864 467.953C37.5985 469.104 38.5152 470.43 39.1364 471.93C39.7576 473.43 40.0758 475.112 40.0909 476.975C40.0758 479.915 39.3333 482.437 37.8636 484.544C36.3939 486.65 34.2803 488.263 31.5227 489.384C28.7803 490.506 25.4697 491.066 21.5909 491.066C17.697 491.066 14.303 490.483 11.4091 489.316C8.51515 488.15 6.26515 486.377 4.65909 483.998C3.05303 481.619 2.22727 478.612 2.18182 474.975H12.9545C13.0455 476.475 13.447 477.725 14.1591 478.725C14.8712 479.725 15.8485 480.483 17.0909 480.998C18.3485 481.513 19.803 481.771 21.4545 481.771C22.9697 481.771 24.2576 481.566 25.3182 481.157C26.3939 480.748 27.2197 480.18 27.7955 479.453C28.3712 478.725 28.6667 477.892 28.6818 476.953C28.6667 476.074 28.3939 475.324 27.8636 474.703C27.3333 474.066 26.5152 473.521 25.4091 473.066C24.3182 472.597 22.9242 472.165 21.2273 471.771L16.3636 470.634C12.3333 469.71 9.15909 468.218 6.84091 466.157C4.52273 464.081 3.37121 461.278 3.38636 457.748C3.37121 454.869 4.14394 452.347 5.70455 450.18C7.26515 448.013 9.42424 446.324 12.1818 445.112C14.9394 443.9 18.0833 443.294 21.6136 443.294C25.2197 443.294 28.3485 443.907 31 445.134C33.6667 446.347 35.7348 448.051 37.2045 450.248C38.6742 452.445 39.4242 454.99 39.4545 457.884H28.6818ZM44.25 453.066V443.93H83.5909V453.066H69.4773V490.475H58.3864V453.066H44.25ZM89.0852 490.475V443.93H121.54V453.066H100.335V462.612H119.881V471.771H100.335V481.339H121.54V490.475H89.0852ZM128.585 490.475V443.93H139.835V481.339H159.199V490.475H128.585ZM165.023 490.475V443.93H176.273V481.339H195.636V490.475H165.023ZM212.153 490.475H200.062L215.767 443.93H230.744L246.449 490.475H234.358L223.426 455.657H223.062L212.153 490.475ZM210.54 472.157H235.812V480.703H210.54V472.157ZM251.46 490.475V443.93H270.688C274.172 443.93 277.18 444.559 279.71 445.816C282.256 447.059 284.218 448.847 285.597 451.18C286.975 453.498 287.665 456.248 287.665 459.43C287.665 462.657 286.96 465.4 285.551 467.657C284.142 469.9 282.142 471.612 279.551 472.794C276.96 473.96 273.892 474.544 270.347 474.544H258.188V465.68H268.256C269.953 465.68 271.369 465.46 272.506 465.021C273.657 464.566 274.528 463.884 275.119 462.975C275.71 462.051 276.006 460.869 276.006 459.43C276.006 457.99 275.71 456.801 275.119 455.862C274.528 454.907 273.657 454.195 272.506 453.725C271.354 453.24 269.938 452.998 268.256 452.998H262.71V490.475H251.46ZM277.665 469.203L289.256 490.475H276.983L265.619 469.203H277.665ZM307.585 490.475V443.93H326.812C330.297 443.93 333.305 444.612 335.835 445.975C338.381 447.324 340.343 449.21 341.722 451.634C343.1 454.044 343.79 456.847 343.79 460.044C343.79 463.256 343.085 466.066 341.676 468.475C340.282 470.869 338.29 472.725 335.699 474.044C333.108 475.362 330.032 476.021 326.472 476.021H314.608V467.157H324.381C326.078 467.157 327.494 466.862 328.631 466.271C329.782 465.68 330.653 464.854 331.244 463.794C331.835 462.718 332.131 461.468 332.131 460.044C332.131 458.604 331.835 457.362 331.244 456.316C330.653 455.256 329.782 454.437 328.631 453.862C327.479 453.286 326.063 452.998 324.381 452.998H318.835V490.475H307.585ZM349.335 490.475V443.93H368.562C372.047 443.93 375.055 444.559 377.585 445.816C380.131 447.059 382.093 448.847 383.472 451.18C384.85 453.498 385.54 456.248 385.54 459.43C385.54 462.657 384.835 465.4 383.426 467.657C382.017 469.9 380.017 471.612 377.426 472.794C374.835 473.96 371.767 474.544 368.222 474.544H356.062V465.68H366.131C367.828 465.68 369.244 465.46 370.381 465.021C371.532 464.566 372.403 463.884 372.994 462.975C373.585 462.051 373.881 460.869 373.881 459.43C373.881 457.99 373.585 456.801 372.994 455.862C372.403 454.907 371.532 454.195 370.381 453.725C369.229 453.24 367.813 452.998 366.131 452.998H360.585V490.475H349.335ZM375.54 469.203L387.131 490.475H374.858L363.494 469.203H375.54ZM435.642 467.203C435.642 472.324 434.657 476.665 432.688 480.225C430.718 483.786 428.051 486.49 424.688 488.339C421.339 490.187 417.581 491.112 413.415 491.112C409.233 491.112 405.468 490.18 402.119 488.316C398.771 486.453 396.112 483.748 394.142 480.203C392.188 476.642 391.21 472.309 391.21 467.203C391.21 462.081 392.188 457.74 394.142 454.18C396.112 450.619 398.771 447.915 402.119 446.066C405.468 444.218 409.233 443.294 413.415 443.294C417.581 443.294 421.339 444.218 424.688 446.066C428.051 447.915 430.718 450.619 432.688 454.18C434.657 457.74 435.642 462.081 435.642 467.203ZM424.142 467.203C424.142 464.172 423.71 461.612 422.847 459.521C421.998 457.43 420.771 455.847 419.165 454.771C417.574 453.695 415.657 453.157 413.415 453.157C411.188 453.157 409.271 453.695 407.665 454.771C406.059 455.847 404.824 457.43 403.96 459.521C403.112 461.612 402.688 464.172 402.688 467.203C402.688 470.233 403.112 472.794 403.96 474.884C404.824 476.975 406.059 478.559 407.665 479.634C409.271 480.71 411.188 481.248 413.415 481.248C415.657 481.248 417.574 480.71 419.165 479.634C420.771 478.559 421.998 476.975 422.847 474.884C423.71 472.794 424.142 470.233 424.142 467.203ZM442.21 490.475V443.93H461.438C464.922 443.93 467.93 444.612 470.46 445.975C473.006 447.324 474.968 449.21 476.347 451.634C477.725 454.044 478.415 456.847 478.415 460.044C478.415 463.256 477.71 466.066 476.301 468.475C474.907 470.869 472.915 472.725 470.324 474.044C467.733 475.362 464.657 476.021 461.097 476.021H449.233V467.157H459.006C460.703 467.157 462.119 466.862 463.256 466.271C464.407 465.68 465.278 464.854 465.869 463.794C466.46 462.718 466.756 461.468 466.756 460.044C466.756 458.604 466.46 457.362 465.869 456.316C465.278 455.256 464.407 454.437 463.256 453.862C462.104 453.286 460.688 452.998 459.006 452.998H453.46V490.475H442.21ZM483.96 490.475V443.93H516.415V453.066H495.21V462.612H514.756V471.771H495.21V481.339H516.415V490.475H483.96ZM523.46 490.475V443.93H542.688C546.172 443.93 549.18 444.559 551.71 445.816C554.256 447.059 556.218 448.847 557.597 451.18C558.975 453.498 559.665 456.248 559.665 459.43C559.665 462.657 558.96 465.4 557.551 467.657C556.142 469.9 554.142 471.612 551.551 472.794C548.96 473.96 545.892 474.544 542.347 474.544H530.188V465.68H540.256C541.953 465.68 543.369 465.46 544.506 465.021C545.657 464.566 546.528 463.884 547.119 462.975C547.71 462.051 548.006 460.869 548.006 459.43C548.006 457.99 547.71 456.801 547.119 455.862C546.528 454.907 545.657 454.195 544.506 453.725C543.354 453.24 541.938 452.998 540.256 452.998H534.71V490.475H523.46ZM549.665 469.203L561.256 490.475H548.983L537.619 469.203H549.665ZM564.312 453.066V443.93H603.653V453.066H589.54V490.475H578.449V453.066H564.312ZM620.398 443.93V490.475H609.148V443.93H620.398ZM627.46 490.475V443.93H659.915V453.066H638.71V462.612H658.256V471.771H638.71V481.339H659.915V490.475H627.46ZM692.119 457.884C691.968 456.218 691.294 454.922 690.097 453.998C688.915 453.059 687.225 452.589 685.028 452.589C683.574 452.589 682.362 452.778 681.392 453.157C680.422 453.536 679.695 454.059 679.21 454.725C678.725 455.377 678.475 456.127 678.46 456.975C678.43 457.672 678.566 458.286 678.869 458.816C679.188 459.347 679.642 459.816 680.233 460.225C680.839 460.619 681.566 460.968 682.415 461.271C683.263 461.574 684.218 461.839 685.278 462.066L689.278 462.975C691.581 463.475 693.612 464.142 695.369 464.975C697.142 465.809 698.627 466.801 699.824 467.953C701.036 469.104 701.953 470.43 702.574 471.93C703.195 473.43 703.513 475.112 703.528 476.975C703.513 479.915 702.771 482.437 701.301 484.544C699.831 486.65 697.718 488.263 694.96 489.384C692.218 490.506 688.907 491.066 685.028 491.066C681.134 491.066 677.741 490.483 674.847 489.316C671.953 488.15 669.703 486.377 668.097 483.998C666.491 481.619 665.665 478.612 665.619 474.975H676.392C676.483 476.475 676.884 477.725 677.597 478.725C678.309 479.725 679.286 480.483 680.528 480.998C681.786 481.513 683.241 481.771 684.892 481.771C686.407 481.771 687.695 481.566 688.756 481.157C689.831 480.748 690.657 480.18 691.233 479.453C691.809 478.725 692.104 477.892 692.119 476.953C692.104 476.074 691.831 475.324 691.301 474.703C690.771 474.066 689.953 473.521 688.847 473.066C687.756 472.597 686.362 472.165 684.665 471.771L679.801 470.634C675.771 469.71 672.597 468.218 670.278 466.157C667.96 464.081 666.809 461.278 666.824 457.748C666.809 454.869 667.581 452.347 669.142 450.18C670.703 448.013 672.862 446.324 675.619 445.112C678.377 443.9 681.521 443.294 685.051 443.294C688.657 443.294 691.786 443.907 694.438 445.134C697.104 446.347 699.172 448.051 700.642 450.248C702.112 452.445 702.862 454.99 702.892 457.884H692.119Z" fill="#853943"/>
<path fill-rule="evenodd" clip-rule="evenodd" d="M364.001 20.3045L355.003 0L345.765 20.1968L293.906 133.578H155.704H129.257L149.088 151.076L253.927 243.582L242.912 287.645C247.104 294.412 252.74 300.222 259.146 305.171L274.805 242.532L276.28 236.632L271.72 232.609L182.152 153.578H300.328H306.751L309.422 147.737L354.715 48.7124L398.553 147.63L401.189 153.578H407.696H521.187L434.809 232.734L430.082 237.066L432.046 243.17L464.663 344.525L360.149 279.377L354.727 275.998L349.382 279.497L286.839 320.437C295.833 323.974 304.65 326.388 312.011 327.864L354.99 299.729L477.258 375.944L500.433 390.389L492.067 364.394L453.049 243.147L553.657 150.95L572.614 133.578H546.901H414.202L364.001 20.3045ZM271.905 354.116C264.484 351.1 257.733 347.382 251.749 343.407L249.164 345.099L249.9 342.154C243.108 337.46 237.372 332.481 232.842 327.921L223.565 365.032L217.369 389.816L238.743 375.824L271.905 354.116Z" fill="#BCA76E"/>
<path d="M360.955 127.659L276.281 208.269" stroke="#BCA76E" stroke-width="20"/>
<path d="M348.085 127.659L438.856 208.269" stroke="#BCA76E" stroke-width="20"/>
<path d="M313.167 289.372L297.167 300.165V215.086L313.167 200.165V289.372Z" fill="#BCA76E"/>
<path d="M398.167 289.372L414.167 300.165V215.086L398.167 200.165V289.372Z" fill="#BCA76E"/>
<rect x="331.149" y="191.334" width="16.9349" height="16.9349" fill="#853943"/>
<rect x="361.633" y="191.334" width="16.9349" height="16.9349" fill="#853943"/>
<rect x="331.149" y="219.107" width="16.9349" height="16.9349" fill="#853943"/>
<rect x="361.633" y="219.107" width="16.9349" height="16.9349" fill="#853943"/>
<path fill-rule="evenodd" clip-rule="evenodd" d="M339.617 343.749C359.404 343.749 378.197 339.497 395.132 331.856L408.04 341.283C387.45 351.949 364.068 357.974 339.279 357.974C256.599 357.974 189.574 290.949 189.574 208.269C189.574 205.978 189.625 203.698 189.727 201.431L204.601 214.465C207.668 286.384 266.944 343.749 339.617 343.749ZM233.477 124.95C251.412 102.227 276.487 85.4013 305.317 77.8588L312.568 60.9409C271.952 68.2561 237.028 91.9549 214.884 124.95H233.477Z" fill="#BCA76E"/>
<circle cx="350.5" cy="609.975" r="17.5" fill="#BCA76E"/>
<path d="M53.5 554.475H98.5M49 608.975H313" stroke="#BCA76E" stroke-width="7" stroke-linecap="round"/>
<path d="M647.5 554.475H602.5M652 608.975H388" stroke="#BCA76E" stroke-width="7" stroke-linecap="round"/>
</svg>
