<svg width="444" height="391" viewBox="0 0 444 391" fill="none" xmlns="http://www.w3.org/2000/svg">
<path fill-rule="evenodd" clip-rule="evenodd" d="M234.745 20.3045L225.746 0L216.508 20.1968L164.649 133.578H26.4477H0L19.8315 151.076L124.671 243.582L113.655 287.645C117.847 294.412 123.483 300.222 129.889 305.171L145.549 242.532L147.024 236.632L142.463 232.609L52.8954 153.578H171.072H177.494L180.166 147.737L225.458 48.7124L269.297 147.63L271.933 153.578H278.439H391.93L305.553 232.734L300.825 237.066L302.79 243.17L335.407 344.525L230.892 279.377L225.471 275.998L220.125 279.497L157.582 320.437C166.576 323.974 175.393 326.388 182.754 327.864L225.734 299.729L348.002 375.944L371.176 390.389L362.811 364.394L323.792 243.147L424.4 150.95L443.358 133.578H417.644H284.945L234.745 20.3045ZM142.649 354.116C135.227 351.1 128.476 347.382 122.492 343.407L119.907 345.099L120.643 342.154C113.851 337.46 108.115 332.481 103.586 327.921L94.3082 365.032L88.1122 389.816L109.486 375.824L142.649 354.116Z" fill="#BCA76E"/>
<path d="M231.699 127.659L147.024 208.269" stroke="#BCA76E" stroke-width="20"/>
<path d="M218.828 127.659L309.599 208.269" stroke="#BCA76E" stroke-width="20"/>
<path d="M183.911 289.372L167.911 300.165V215.086L183.911 200.165V289.372Z" fill="#BCA76E"/>
<path d="M268.911 289.372L284.911 300.165V215.086L268.911 200.165V289.372Z" fill="#BCA76E"/>
<rect x="201.893" y="191.334" width="16.9349" height="16.9349" fill="#853943"/>
<rect x="232.376" y="191.334" width="16.9349" height="16.9349" fill="#853943"/>
<rect x="201.893" y="219.107" width="16.9349" height="16.9349" fill="#853943"/>
<rect x="232.376" y="219.107" width="16.9349" height="16.9349" fill="#853943"/>
<path fill-rule="evenodd" clip-rule="evenodd" d="M210.361 343.749C230.147 343.749 248.94 339.497 265.876 331.856L278.784 341.283C258.193 351.949 234.811 357.974 210.022 357.974C127.342 357.974 60.3174 290.949 60.3174 208.269C60.3174 205.978 60.3689 203.698 60.4708 201.431L75.3449 214.465C78.4115 286.384 137.687 343.749 210.361 343.749ZM104.221 124.95C122.155 102.227 147.23 85.4013 176.061 77.8588L183.311 60.9409C142.695 68.2561 107.772 91.9549 85.6277 124.95H104.221Z" fill="#BCA76E"/>
</svg>
